<svg width="10" height="10" viewBox="0 0 10 10" fill="none" xmlns="http://www.w3.org/2000/svg">
<path d="M5.41671 9.47921H2.08337C1.07504 9.47921 0.520874 8.92504 0.520874 7.91671V4.58337C0.520874 3.57504 1.07504 3.02087 2.08337 3.02087H4.16671C4.33754 3.02087 4.47921 3.16254 4.47921 3.33337V7.91671C4.47921 8.57504 4.75837 8.85421 5.41671 8.85421C5.58754 8.85421 5.72921 8.99587 5.72921 9.16671C5.72921 9.33754 5.58754 9.47921 5.41671 9.47921ZM2.08337 3.64587C1.42504 3.64587 1.14587 3.92504 1.14587 4.58337V7.91671C1.14587 8.57504 1.42504 8.85421 2.08337 8.85421H4.08337C3.93337 8.60837 3.85421 8.29587 3.85421 7.91671V3.64587H2.08337Z" fill="white"/>
<path d="M4.16671 3.64579H2.08337C1.91254 3.64579 1.77087 3.50413 1.77087 3.33329V2.49996C1.77087 1.86663 2.28337 1.35413 2.91671 1.35413H4.21253C4.30837 1.35413 4.40005 1.39995 4.45838 1.47495C4.51671 1.55412 4.53754 1.65413 4.51254 1.74579C4.48754 1.83746 4.47921 1.94163 4.47921 2.08329V3.33329C4.47921 3.50413 4.33754 3.64579 4.16671 3.64579ZM2.39587 3.02079H3.85421V2.08329C3.85421 2.04579 3.85421 2.01246 3.85421 1.97913H2.91671C2.62921 1.97913 2.39587 2.21246 2.39587 2.49996V3.02079Z" fill="white"/>
<path d="M5.83337 5.72921C5.66254 5.72921 5.52087 5.58754 5.52087 5.41671V3.33337C5.52087 3.16254 5.66254 3.02087 5.83337 3.02087C6.00421 3.02087 6.14587 3.16254 6.14587 3.33337V5.41671C6.14587 5.58754 6.00421 5.72921 5.83337 5.72921Z" fill="white"/>
<path d="M7.5 5.72921C7.32917 5.72921 7.1875 5.58754 7.1875 5.41671V3.33337C7.1875 3.16254 7.32917 3.02087 7.5 3.02087C7.67083 3.02087 7.8125 3.16254 7.8125 3.33337V5.41671C7.8125 5.58754 7.67083 5.72921 7.5 5.72921Z" fill="white"/>
<path d="M7.50004 9.47921H5.83337C5.66254 9.47921 5.52087 9.33754 5.52087 9.16671V7.50004C5.52087 7.10004 5.85004 6.77087 6.25004 6.77087H7.08337C7.48337 6.77087 7.81254 7.10004 7.81254 7.50004V9.16671C7.81254 9.33754 7.67087 9.47921 7.50004 9.47921ZM6.14587 8.85421H7.18754V7.50004C7.18754 7.44171 7.14171 7.39587 7.08337 7.39587H6.25004C6.19171 7.39587 6.14587 7.44171 6.14587 7.50004V8.85421Z" fill="white"/>
<path d="M2.5 7.39579C2.32917 7.39579 2.1875 7.25413 2.1875 7.08329V5.41663C2.1875 5.24579 2.32917 5.10413 2.5 5.10413C2.67083 5.10413 2.8125 5.24579 2.8125 5.41663V7.08329C2.8125 7.25413 2.67083 7.39579 2.5 7.39579Z" fill="white"/>
<path d="M7.91663 9.47921H5.41663C4.40829 9.47921 3.85413 8.92504 3.85413 7.91671V2.08337C3.85413 1.07504 4.40829 0.520874 5.41663 0.520874H7.91663C8.92496 0.520874 9.47913 1.07504 9.47913 2.08337V7.91671C9.47913 8.92504 8.92496 9.47921 7.91663 9.47921ZM5.41663 1.14587C4.75829 1.14587 4.47913 1.42504 4.47913 2.08337V7.91671C4.47913 8.57504 4.75829 8.85421 5.41663 8.85421H7.91663C8.57496 8.85421 8.85413 8.57504 8.85413 7.91671V2.08337C8.85413 1.42504 8.57496 1.14587 7.91663 1.14587H5.41663Z" fill="white"/>
</svg>
