<svg width="96" height="96" viewBox="0 0 96 96" fill="none" xmlns="http://www.w3.org/2000/svg">
<path fill-rule="evenodd" clip-rule="evenodd" d="M9.6 12C9.6 10.6745 10.6745 9.6 12 9.6H84C85.3255 9.6 86.4 10.6745 86.4 12V84C86.4 85.3255 85.3255 86.4 84 86.4H12C10.6745 86.4 9.6 85.3255 9.6 84V12ZM15.6 15.6V80.4H80.4V15.6H15.6Z" fill="#8A1818"/>
<path fill-rule="evenodd" clip-rule="evenodd" d="M49.8 22.8C50.4627 22.8 51 23.3373 51 24V72C51 72.6627 50.4627 73.2 49.8 73.2H46.2C45.5373 73.2 45 72.6627 45 72V24C45 23.3373 45.5373 22.8 46.2 22.8H49.8ZM31.2 39.6C31.8627 39.6 32.4 40.1373 32.4 40.8V72C32.4 72.6627 31.8627 73.2 31.2 73.2H27.6C26.9373 73.2 26.4 72.6627 26.4 72V40.8C26.4 40.1373 26.9373 39.6 27.6 39.6H31.2ZM68.4 51.6C69.0627 51.6 69.6 52.1373 69.6 52.8V72C69.6 72.6627 69.0627 73.2 68.4 73.2H64.8C64.1373 73.2 63.6 72.6627 63.6 72V52.8C63.6 52.1373 64.1373 51.6 64.8 51.6H68.4Z" fill="#8A1818"/>
</svg>
