<svg width="7" height="7" viewBox="0 0 7 7" fill="none" xmlns="http://www.w3.org/2000/svg">
<g clip-path="url(#clip0_84_319)">
<path d="M7 3.5C7 1.56702 5.43298 0 3.5 0C1.56702 0 0 1.56702 0 3.5C0 5.14136 1.13008 6.51868 2.65454 6.89696V4.5696H1.93284V3.5H2.65454V3.03912C2.65454 1.84786 3.19368 1.2957 4.36324 1.2957C4.585 1.2957 4.96762 1.33924 5.12414 1.38264V2.35214C5.04154 2.34346 4.89804 2.33912 4.71982 2.33912C4.14596 2.33912 3.9242 2.55654 3.9242 3.12172V3.5H5.06744L4.87102 4.5696H3.9242V6.97438C5.65726 6.76508 7.00014 5.28948 7.00014 3.5H7Z" fill="#0866FF"/>
<path d="M4.87092 4.56955L5.06734 3.49995H3.9241V3.12167C3.9241 2.55649 4.14586 2.33907 4.71972 2.33907C4.89794 2.33907 5.04144 2.34341 5.12404 2.35209V1.38259C4.96752 1.33905 4.5849 1.29565 4.36314 1.29565C3.19358 1.29565 2.65444 1.84781 2.65444 3.03907V3.49995H1.93274V4.56955H2.65444V6.89691C2.9252 6.96411 3.20842 6.99995 3.4999 6.99995C3.6434 6.99995 3.78494 6.99113 3.92396 6.97433V4.56955H4.87078H4.87092Z" fill="white"/>
</g>
<defs>
<clipPath id="clip0_84_319">
<rect width="7" height="7" fill="white"/>
</clipPath>
</defs>
</svg>
