<svg width="15" height="15" viewBox="0 0 15 15" fill="none" xmlns="http://www.w3.org/2000/svg">
<path d="M7.5 7.5C6.8125 7.5 6.22396 7.25521 5.73438 6.76563C5.24479 6.27604 5 5.6875 5 5C5 4.3125 5.24479 3.72396 5.73438 3.23438C6.22396 2.74479 6.8125 2.5 7.5 2.5C8.1875 2.5 8.77604 2.74479 9.26562 3.23438C9.75521 3.72396 10 4.3125 10 5C10 5.6875 9.75521 6.27604 9.26562 6.76563C8.77604 7.25521 8.1875 7.5 7.5 7.5ZM2.5 12.5V10.75C2.5 10.3958 2.59115 10.0703 2.77344 9.77344C2.95573 9.47656 3.19792 9.25 3.5 9.09375C4.14583 8.77083 4.80208 8.52865 5.46875 8.36719C6.13542 8.20573 6.8125 8.125 7.5 8.125C8.1875 8.125 8.86458 8.20573 9.53125 8.36719C10.1979 8.52865 10.8542 8.77083 11.5 9.09375C11.8021 9.25 12.0443 9.47656 12.2266 9.77344C12.4089 10.0703 12.5 10.3958 12.5 10.75V12.5H2.5ZM3.75 11.25H11.25V10.75C11.25 10.6354 11.2214 10.5312 11.1641 10.4375C11.1068 10.3437 11.0313 10.2708 10.9375 10.2188C10.375 9.9375 9.80729 9.72656 9.23438 9.58594C8.66146 9.44531 8.08333 9.375 7.5 9.375C6.91667 9.375 6.33854 9.44531 5.76562 9.58594C5.19271 9.72656 4.625 9.9375 4.0625 10.2188C3.96875 10.2708 3.89323 10.3437 3.83594 10.4375C3.77865 10.5312 3.75 10.6354 3.75 10.75V11.25ZM7.5 6.25C7.84375 6.25 8.13802 6.1276 8.38281 5.88281C8.6276 5.63802 8.75 5.34375 8.75 5C8.75 4.65625 8.6276 4.36198 8.38281 4.11719C8.13802 3.8724 7.84375 3.75 7.5 3.75C7.15625 3.75 6.86198 3.8724 6.61719 4.11719C6.3724 4.36198 6.25 4.65625 6.25 5C6.25 5.34375 6.3724 5.63802 6.61719 5.88281C6.86198 6.1276 7.15625 6.25 7.5 6.25Z" fill="#8A1818"/>
</svg>
