<svg width="7" height="7" viewBox="0 0 7 7" fill="none" xmlns="http://www.w3.org/2000/svg">
<path d="M5.00985 2.52689C5.46 2.84981 6.01144 3.03981 6.60703 3.03981V1.88964C6.49432 1.88966 6.38189 1.87786 6.27161 1.85442V2.75977C5.67607 2.75977 5.1247 2.56977 4.67443 2.24687V4.59405C4.67443 5.76822 3.72596 6.72001 2.55602 6.72001C2.11949 6.72001 1.71375 6.58757 1.37671 6.36043C1.76139 6.75516 2.29786 7.00003 2.89137 7.00003C4.06138 7.00003 5.0099 6.04824 5.0099 4.87402V2.52689H5.00985ZM5.42363 1.3665C5.19358 1.11427 5.04253 0.788321 5.00985 0.427967V0.280029H4.69199C4.772 0.738039 5.0449 1.12934 5.42363 1.3665ZM2.11669 5.4594C1.98816 5.29027 1.91871 5.08338 1.91902 4.87065C1.91902 4.33363 2.35284 3.8982 2.88807 3.8982C2.98782 3.89818 3.08697 3.9135 3.18202 3.94377V2.76789C3.07093 2.75261 2.95882 2.74612 2.84675 2.7485V3.66376C2.75162 3.63349 2.65242 3.61811 2.55265 3.61821C2.01742 3.61821 1.58362 4.05359 1.58362 4.59068C1.58362 4.97045 1.80046 5.29923 2.11669 5.4594Z" fill="#FF004F"/>
<path d="M4.67445 2.24684C5.12471 2.56974 5.67608 2.75975 6.27163 2.75975V1.85439C5.9392 1.78333 5.64491 1.60899 5.42364 1.3665C5.04489 1.12931 4.77202 0.738015 4.69201 0.280029H3.85709V4.87397C3.8552 5.40953 3.42211 5.84318 2.88803 5.84318C2.57331 5.84318 2.29371 5.69262 2.11663 5.4594C1.80043 5.29923 1.58359 4.97042 1.58359 4.59071C1.58359 4.05366 2.01739 3.61823 2.55261 3.61823C2.65516 3.61823 2.754 3.63425 2.84671 3.66378V2.74853C1.69733 2.77236 0.772949 3.71485 0.772949 4.87399C0.772949 5.45263 1.00314 5.97718 1.37675 6.36045C1.71379 6.58757 2.11953 6.72004 2.55606 6.72004C3.72602 6.72004 4.67447 5.7682 4.67447 4.59405V2.24684H4.67445Z" fill="white"/>
<path d="M6.27157 1.85436V1.60956C5.97181 1.61001 5.67792 1.52576 5.42359 1.36644C5.64873 1.61381 5.9452 1.78438 6.27157 1.85436ZM4.69195 0.279995C4.68432 0.236224 4.67846 0.192165 4.67439 0.147937V0H3.52159V4.59399C3.51975 5.12947 3.08669 5.56312 2.55256 5.56312C2.39575 5.56312 2.2477 5.52577 2.11658 5.45939C2.29366 5.69259 2.57326 5.84312 2.88798 5.84312C3.42201 5.84312 3.85517 5.40952 3.85703 4.87396V0.279995H4.69195ZM2.84671 2.74849V2.48789C2.75038 2.47467 2.65327 2.46804 2.55603 2.46809C1.38598 2.46807 0.4375 3.41991 0.4375 4.59399C0.4375 5.33007 0.810268 5.97878 1.37672 6.36037C1.00311 5.97712 0.772919 5.45254 0.772919 4.87393C0.772919 3.71482 1.69728 2.77232 2.84671 2.74849Z" fill="#00F2EA"/>
</svg>
