<svg width="12" height="12" viewBox="0 0 12 12" fill="none" xmlns="http://www.w3.org/2000/svg">
<path d="M8.58823 4.33173C9.35991 4.88532 10.3052 5.21104 11.3263 5.21104V3.23931C11.133 3.23935 10.9403 3.21913 10.7513 3.17893V4.73097C9.73032 4.73097 8.78511 4.40525 8.01323 3.8517V7.87544C8.01323 9.88831 6.38727 11.52 4.38167 11.52C3.63333 11.52 2.93778 11.2929 2.35999 10.9035C3.01944 11.5802 3.9391 12 4.95655 12C6.96227 12 8.58831 10.3683 8.58831 8.35539V4.33173H8.58823ZM9.29756 2.3425C8.90319 1.91011 8.64426 1.35134 8.58823 0.733587V0.47998H8.04333C8.18049 1.26514 8.64832 1.93594 9.29756 2.3425ZM3.62853 9.3589C3.40819 9.06897 3.28912 8.7143 3.28965 8.34962C3.28965 7.42901 4.03336 6.68256 4.95089 6.68256C5.12188 6.68252 5.29185 6.7088 5.45481 6.76069V4.74489C5.26437 4.71869 5.07217 4.70757 4.88005 4.71165V6.28065C4.71697 6.22876 4.54692 6.2024 4.37588 6.20257C3.45835 6.20257 2.71469 6.94894 2.71469 7.86967C2.71469 8.5207 3.08642 9.08433 3.62853 9.3589Z" fill="#8A1818"/>
<path d="M8.01323 3.85166C8.78511 4.40521 9.73033 4.73092 10.7513 4.73092V3.17889C10.1814 3.05707 9.67688 2.7582 9.29757 2.3425C8.64828 1.93589 8.18049 1.2651 8.04334 0.47998H6.61204V8.35531C6.6088 9.27341 5.86637 10.0168 4.95081 10.0168C4.41129 10.0168 3.93197 9.75871 3.62841 9.3589C3.08634 9.08433 2.71462 8.52066 2.71462 7.86971C2.71462 6.94906 3.45828 6.20261 4.37581 6.20261C4.5516 6.20261 4.72104 6.23008 4.87998 6.28069V4.71169C2.90961 4.75255 1.32495 6.36825 1.32495 8.35535C1.32495 9.34729 1.71957 10.2465 2.36003 10.9036C2.93782 11.2929 3.63337 11.52 4.38171 11.52C6.38736 11.52 8.01327 9.88827 8.01327 7.87544V3.85166H8.01323Z" fill="white"/>
<path d="M10.7513 3.1789V2.75924C10.2374 2.76002 9.73358 2.61559 9.29758 2.34247C9.68354 2.76653 10.1918 3.05893 10.7513 3.1789ZM8.04335 0.479992C8.03027 0.404956 8.02022 0.329425 8.01324 0.253607V0H6.03701V7.87541C6.03385 8.79338 5.29146 9.53678 4.37582 9.53678C4.107 9.53678 3.85319 9.47274 3.62842 9.35895C3.93198 9.75872 4.4113 10.0168 4.95082 10.0168C5.8663 10.0168 6.60885 9.27346 6.61205 8.35536V0.479992H8.04335ZM4.88007 4.7117V4.26495C4.71494 4.2423 4.54845 4.23093 4.38177 4.23101C2.37596 4.23097 0.75 5.86269 0.75 7.87541C0.75 9.13726 1.38903 10.2493 2.36008 10.9035C1.71962 10.2465 1.325 9.34722 1.325 8.35532C1.325 6.36826 2.90962 4.75256 4.88007 4.7117Z" fill="#8A1818"/>
</svg>
