<svg width="12" height="12" viewBox="0 0 12 12" fill="none" xmlns="http://www.w3.org/2000/svg">
<path d="M0 12L0.843498 8.9185C0.322999 8.0165 0.0494999 6.994 0.0499999 5.9455C0.0514999 2.6675 2.71899 0 5.99649 0C7.58698 0.0005 9.07998 0.62 10.203 1.744C11.3255 2.868 11.9435 4.362 11.943 5.951C11.9415 9.2295 9.27398 11.897 5.99649 11.897C5.00149 11.8965 4.02099 11.647 3.15249 11.173L0 12ZM3.29849 10.0965C4.13649 10.594 4.93649 10.892 5.99449 10.8925C8.71848 10.8925 10.9375 8.6755 10.939 5.95C10.94 3.219 8.73148 1.005 5.99849 1.004C3.27249 1.004 1.055 3.221 1.054 5.946C1.0535 7.0585 1.3795 7.8915 1.927 8.763L1.4275 10.587L3.29849 10.0965ZM8.99198 7.3645C8.95498 7.3025 8.85598 7.2655 8.70698 7.191C8.55848 7.1165 7.82798 6.757 7.69148 6.7075C7.55548 6.658 7.45648 6.633 7.35698 6.782C7.25798 6.9305 6.97298 7.2655 6.88648 7.3645C6.79998 7.4635 6.71298 7.476 6.56449 7.4015C6.41599 7.327 5.93699 7.1705 5.36949 6.664C4.92799 6.27 4.62949 5.7835 4.54299 5.6345C4.45649 5.486 4.53399 5.4055 4.60799 5.3315C4.67499 5.265 4.75649 5.158 4.83099 5.071C4.90649 4.985 4.93099 4.923 4.98099 4.8235C5.03049 4.7245 5.00599 4.6375 4.96849 4.563C4.93099 4.489 4.63399 3.7575 4.51049 3.46C4.38949 3.1705 4.26699 3.2095 4.17599 3.205L3.89099 3.2C3.79199 3.2 3.63099 3.237 3.49499 3.386C3.35899 3.535 2.97499 3.894 2.97499 4.6255C2.97499 5.357 3.50749 6.0635 3.58149 6.1625C3.65599 6.2615 4.62899 7.7625 6.11949 8.406C6.47399 8.559 6.75098 8.6505 6.96648 8.719C7.32248 8.832 7.64648 8.816 7.90248 8.778C8.18798 8.7355 8.78148 8.4185 8.90548 8.0715C9.02948 7.724 9.02948 7.4265 8.99198 7.3645Z" fill="#8A1818"/>
</svg>
